# xmcd CD database file
#
# Track frame offsets:
#	150
#	23250
#	42267
#	57697
#	72705
#	86995
#	98025
#	126202
#	144967
#	154902
#	180897
#	192172
#	203580
#	227157
#
# Disc length: 3643 seconds
#
# Revision: 1
# Processed by: cddbd v1.5.2PL0 Copyright (c) Steve Scherf et al.
# Submitted via: CDex 1.51
#
DISCID=bc0e390e
DTITLE=Grateful Dead - First Hits
DYEAR=1900
DGENRE=Rock
TTITLE0=Morning Dew
TTITLE1=Ripple
TTITLE2=Friend Of The Devil
TTITLE3=Sugar Magnolia
TTITLE4=Till The Morning Comes
TTITLE5=Operator
TTITLE6=Candyman
TTITLE7=Brokedown Palace
TTITLE8=The Golden Road (To Unlimited Devotion)
TTITLE9=Good Morning, Little School Girl
TTITLE10=Cream Puff War
TTITLE11=Cold Rain And Snow
TTITLE12=Attics Of My Life
TTITLE13=Viola Lee Blues
EXTD=
EXTT0=
EXTT1=
EXTT2=
EXTT3=
EXTT4=
EXTT5=
EXTT6=
EXTT7=
EXTT8=
EXTT9=
EXTT10=
EXTT11=
EXTT12=
EXTT13=
PLAYORDER=
